<svg version="1.1" id="Layer_1" xmlns="http://www.w3.org/2000/svg" xmlns:xlink="http://www.w3.org/1999/xlink" x="0px" y="0px"
	 width="100%" viewBox="0 0 336 192" enable-background="new 0 0 336 192" xml:space="preserve">
<path fill="#000000" opacity="1.000000" stroke="none" 
	d="
M202.237091,96.621719 
	C201.433838,93.912842 201.572906,91.334946 199.563263,88.639915 
	C196.971542,94.882622 194.441986,100.618912 192.219864,106.471924 
	C191.030182,109.605507 189.479706,110.750725 186.262787,109.141624 
	C184.648651,108.334229 182.701828,107.263863 181.100281,107.521866 
	C174.574936,108.573082 171.555817,104.583725 168.499496,99.937210 
	C164.972809,94.575600 161.009827,89.500977 156.284927,84.628166 
	C156.284927,90.707260 156.098495,96.794121 156.350983,102.862709 
	C156.517090,106.854836 154.847702,108.061195 151.090561,108.178032 
	C147.283875,108.296425 146.033173,106.576477 146.004852,103.153961 
	C145.915253,92.323570 145.727295,81.493637 145.708176,70.663300 
	C145.704666,68.678764 144.697067,65.847412 147.590988,65.110703 
	C150.659943,64.329430 153.833527,64.165947 156.085953,67.426201 
	C160.157349,73.319351 164.386765,79.103569 168.570343,84.918785 
	C169.240219,85.849899 170.014816,86.705673 171.689316,88.759285 
	C171.689316,81.774445 171.996750,76.069221 171.594666,70.414444 
	C171.256622,65.660645 173.201050,64.361572 177.576614,64.408226 
	C180.470078,64.439072 181.168701,65.441200 181.469528,68.121475 
	C182.588913,78.094788 182.047440,88.096107 182.320267,98.080986 
	C182.347122,99.064056 182.323868,100.048500 183.274231,101.327454 
	C186.366165,93.937477 189.464233,86.550049 192.546219,79.155930 
	C193.443130,77.004105 194.117767,74.737923 195.218491,72.699203 
	C196.208221,70.866074 196.006622,67.463974 199.424408,68.164764 
	C202.532455,68.802032 205.500534,69.908325 206.256729,73.776108 
	C207.499649,80.133499 208.990402,86.442085 210.288208,92.789330 
	C210.688187,94.745544 211.116089,96.643127 212.659363,98.910263 
	C215.170441,92.819771 217.631866,87.215034 219.783798,81.493874 
	C221.082397,78.041321 222.865479,77.446320 226.260880,78.804665 
	C229.868332,80.247841 230.659653,81.961433 229.091507,85.589981 
	C224.798462,95.523552 220.886551,105.621269 216.676407,115.591782 
	C215.931366,117.356163 215.889801,120.522644 212.767044,119.766281 
	C209.936707,119.080742 206.867981,118.221344 206.115677,114.567619 
	C204.908997,108.706909 203.618683,102.863419 202.237091,96.621719 
z"/>
<path fill="#000000" opacity="1.000000" stroke="none" 
	d="
M119.300339,148.680786 
	C124.135033,154.432526 127.752342,160.388824 127.167702,167.862656 
	C126.745338,173.262115 124.037086,177.729843 119.773293,180.968262 
	C115.049011,184.556458 110.032364,187.759720 104.650276,191.470337 
	C99.429688,183.765976 94.599289,176.635498 89.766678,169.506500 
	C87.339165,165.925491 84.905998,162.348328 82.478691,158.767166 
	C81.481430,157.295837 80.669945,155.712479 82.621834,154.458771 
	C88.481049,150.695404 93.776787,145.935379 100.577049,143.802902 
	C107.620697,141.594101 113.639687,143.886932 119.300339,148.680786 
M100.822746,153.140289 
	C93.542122,157.128464 93.537201,157.131805 98.113930,163.877518 
	C100.720261,167.719055 103.402077,171.510757 105.941376,175.395844 
	C107.447014,177.699463 108.989876,177.860367 111.297920,176.407990 
	C116.709602,173.002640 118.778870,168.586105 116.986443,163.559753 
	C114.074615,155.394363 108.703667,151.670059 100.822746,153.140289 
z"/>
<path fill="#000000" opacity="1.000000" stroke="none" 
	d="
M85.147522,97.891068 
	C88.574852,98.138405 91.461281,98.747597 93.944977,101.508514 
	C91.739960,104.532021 90.723686,108.440826 85.258682,107.588188 
	C81.206024,106.955910 78.919495,110.200981 77.724312,113.642075 
	C76.749985,116.447281 79.587624,118.591728 82.788582,117.277092 
	C85.839706,116.023987 88.590134,114.049789 91.505997,112.453323 
	C94.762924,110.670120 98.182922,109.268219 101.978188,110.079056 
	C109.316490,111.646858 113.495338,119.006012 110.727623,126.323769 
	C108.016182,133.492737 102.972618,138.624435 95.320686,140.792831 
	C92.956970,141.462677 90.663933,141.369125 88.501183,140.345871 
	C86.526756,139.411713 83.133980,138.677536 84.422279,135.866699 
	C85.560005,133.384354 87.177681,130.017166 91.476959,130.972244 
	C95.904312,131.955780 100.466354,129.073257 101.473663,124.981468 
	C101.885048,123.310394 101.802170,121.680748 100.345490,120.395828 
	C98.971809,119.184135 97.544739,119.485191 96.187096,120.260857 
	C93.156319,121.992447 90.217590,123.886826 87.169983,125.586929 
	C80.880951,129.095261 76.022583,128.856247 72.014717,124.960693 
	C67.655373,120.723503 66.952271,114.391861 70.307404,108.413712 
	C73.497238,102.730080 78.233658,99.085876 85.147522,97.891068 
z"/>
<path fill="#000000" opacity="1.000000" stroke="none" 
	d="
M130.631073,168.339096 
	C132.424683,155.969254 134.404938,144.026260 135.900665,132.022873 
	C136.622116,126.233086 141.050461,126.907341 144.688568,125.932472 
	C148.061600,125.028648 149.851776,126.758263 151.384583,129.563202 
	C156.884140,139.627106 162.569763,149.589172 168.127777,159.621475 
	C168.904831,161.024078 170.156265,162.311676 169.867493,164.131668 
	C163.099548,167.664291 161.253479,167.302505 157.547775,161.189957 
	C156.109467,158.817429 154.435852,157.982239 151.782394,158.683670 
	C150.187485,159.105301 148.513947,159.225693 146.878952,159.500427 
	C143.536987,160.061981 141.150436,161.067215 141.079803,165.391281 
	C141.004639,169.993622 136.299164,172.990433 131.982758,171.972031 
	C130.044357,171.514725 130.700500,169.975159 130.631073,168.339096 
M144.299759,142.299850 
	C144.392838,145.299850 141.608109,148.704498 144.523529,151.163528 
	C146.312149,152.672134 148.884262,151.125015 151.410583,149.808029 
	C149.738907,146.830231 148.221527,143.921402 146.495926,141.141846 
	C145.654892,139.787094 144.663849,139.685547 144.299759,142.299850 
z"/>
<path fill="#000000" opacity="1.000000" stroke="none" 
	d="
M206.046448,162.707703 
	C210.690933,162.100662 214.166122,164.682602 214.083084,168.743866 
	C213.998306,172.890884 216.169312,175.251953 219.457977,176.969406 
	C221.575668,178.075348 223.641403,177.949524 225.373978,176.078659 
	C227.226959,174.077744 225.970657,172.308105 224.789062,170.722580 
	C222.700745,167.920349 220.270096,165.365463 218.274506,162.503601 
	C214.559570,157.176056 214.389236,152.426575 217.449158,148.139023 
	C220.527451,143.825668 225.866150,142.059906 231.741516,143.862686 
	C238.649185,145.982254 243.862122,150.096756 245.759781,157.458893 
	C246.637863,160.865433 246.131210,163.989838 243.351425,166.789215 
	C240.121979,164.838318 236.309067,164.091812 236.444382,158.837036 
	C236.542114,155.040680 233.197388,153.160736 229.740280,152.525848 
	C226.506378,151.931961 224.719223,154.470108 226.032898,157.518433 
	C227.379791,160.643784 230.037384,162.809311 232.087631,165.422104 
	C237.736115,172.620438 237.529648,179.535629 231.626648,184.451340 
	C230.179947,185.656082 228.570862,186.609619 226.768524,186.901474 
	C218.997162,188.159943 213.254974,184.216660 208.314957,179.012466 
	C203.928101,174.391037 202.571487,168.962692 206.046448,162.707703 
z"/>
<path fill="#000000" opacity="1.000000" stroke="none" 
	d="
M139.902710,91.354065 
	C142.965164,98.135933 144.295685,104.774353 138.864410,110.316536 
	C133.189423,116.107376 126.228256,119.500702 117.697449,117.326920 
	C113.346336,116.218178 110.485405,113.293556 108.646706,109.357864 
	C105.197952,101.975876 101.920486,94.513412 98.430931,87.151169 
	C97.248314,84.656082 97.560768,83.097862 100.252876,82.124138 
	C101.955978,81.508133 103.591949,80.706490 105.865425,79.726212 
	C108.422050,85.139572 110.890137,90.345978 113.340073,95.560921 
	C114.612816,98.270073 115.733505,101.057976 117.134552,103.697968 
	C119.745850,108.618431 123.069191,109.675903 127.827805,107.302269 
	C132.280014,105.081474 133.542801,101.801949 131.453217,97.009964 
	C128.528671,90.303200 125.578667,83.596268 122.300072,77.059685 
	C120.540718,73.552032 121.630051,72.094109 124.897568,70.711502 
	C127.972610,69.410339 129.901688,69.019173 131.432266,72.855057 
	C133.894150,79.024895 136.935364,84.963554 139.902710,91.354065 
z"/>
<path fill="#000000" opacity="1.000000" stroke="none" 
	d="
M202.643188,130.417709 
	C206.173096,130.275833 209.139709,131.222549 212.003891,132.280106 
	C212.515640,134.510132 210.932678,135.500092 209.869629,136.680710 
	C206.525894,140.394257 203.322601,144.271378 199.673416,147.664047 
	C194.225647,152.728836 190.557556,158.559006 189.822281,166.078079 
	C189.456497,169.818466 187.549942,170.496735 183.955734,169.588654 
	C180.415131,168.694122 178.737427,167.175583 180.247498,163.725418 
	C184.753601,153.430054 179.389236,144.307175 177.087936,134.808701 
	C176.246506,131.335739 174.421066,128.048950 174.732162,124.320900 
	C182.231140,123.599907 184.470352,125.045029 186.147720,131.480591 
	C187.220154,135.595184 187.874146,139.844376 189.989700,144.155930 
	C194.312729,139.391159 198.311295,134.983994 202.643188,130.417709 
z"/>
<path fill="#000000" opacity="1.000000" stroke="none" 
	d="
M224.800156,131.441315 
	C223.572464,130.027557 223.234833,128.606201 224.552475,127.686378 
	C236.142822,119.595413 236.655243,106.179268 240.665527,94.446976 
	C241.195343,92.896988 241.678101,91.330917 242.177094,89.789406 
	C248.224701,91.345436 250.579132,95.224678 248.910141,100.561401 
	C247.530487,104.972923 246.146881,109.383202 244.613297,114.278397 
	C249.576965,114.334259 253.435944,112.328156 257.472687,111.205025 
	C264.314392,109.301468 266.156158,110.129387 270.016205,117.793076 
	C262.912750,119.694138 255.988098,121.773026 248.952560,123.360435 
	C243.085327,124.684258 238.194275,127.154144 234.130539,131.748413 
	C229.811172,136.631683 229.568726,136.417236 224.800156,131.441315 
z"/>
<path fill="#000000" opacity="1.000000" stroke="none" 
	d="
M170.249054,34.740730 
	C170.138611,37.082489 170.119614,39.154354 167.489227,39.061131 
	C164.908554,38.969673 164.901672,36.868546 164.889160,35.022243 
	C164.846237,28.690960 164.840439,22.359053 164.882370,16.027796 
	C164.894440,14.204034 164.820129,12.026402 167.431442,11.976016 
	C170.382248,11.919083 170.224121,14.283726 170.237427,16.277122 
	C170.277512,22.275225 170.253799,28.273752 170.249054,34.740730 
z"/>
<path fill="#000000" opacity="1.000000" stroke="none" 
	d="
M54.201576,69.781792 
	C56.896507,72.285255 59.350658,74.525795 61.745335,76.828201 
	C62.870686,77.910194 63.787792,79.149223 62.469814,80.709496 
	C60.970905,82.483971 59.529850,81.695694 58.202358,80.483673 
	C53.050179,75.779678 47.922638,71.048691 42.785870,66.327820 
	C41.545460,65.187843 40.917213,63.923115 42.237755,62.461689 
	C43.534721,61.026337 44.898567,61.411945 46.163715,62.538822 
	C48.768230,64.858673 51.347031,67.207390 54.201576,69.781792 
z"/>
<path fill="#000000" opacity="1.000000" stroke="none" 
	d="
M226.749832,40.784286 
	C229.206024,36.042515 231.478882,31.615179 233.809998,27.218740 
	C234.609192,25.711481 235.505920,24.219057 237.649536,25.406406 
	C239.692902,26.538235 239.175217,28.065592 238.348419,29.641270 
	C235.188690,35.663090 232.034027,41.687660 228.841782,47.692230 
	C228.142441,49.007698 227.449356,50.463959 225.443283,49.549484 
	C223.449234,48.640484 223.289841,47.228619 224.211334,45.482029 
	C224.985275,44.015083 225.795288,42.567177 226.749832,40.784286 
z"/>
<path fill="#000000" opacity="1.000000" stroke="none" 
	d="
M29.120148,102.753586 
	C33.699604,104.414902 37.904163,105.961586 42.112896,107.496841 
	C43.839626,108.126709 45.086857,109.003372 44.388184,111.163795 
	C43.605621,113.583611 41.926250,112.903564 40.355209,112.331566 
	C34.118034,110.060684 27.893597,107.754463 21.676020,105.430351 
	C19.927557,104.776787 18.020071,104.076431 18.982239,101.581711 
	C20.019899,98.891228 21.976980,100.318947 23.592953,100.784203 
	C25.343412,101.288155 27.031595,102.008423 29.120148,102.753586 
z"/>
<path fill="#000000" opacity="1.000000" stroke="none" 
	d="
M103.643372,41.229111 
	C101.993614,37.023483 100.416946,33.202507 98.942345,29.342537 
	C98.341003,27.768431 97.843933,26.023672 100.004028,25.148003 
	C102.167557,24.270937 102.910812,25.743483 103.569473,27.424368 
	C105.981697,33.580330 108.489014,39.699364 110.860527,45.870728 
	C111.483627,47.492218 112.469299,49.418674 109.811272,50.386642 
	C107.132782,51.362064 106.805344,49.206200 106.127312,47.591911 
	C105.295517,45.611546 104.543839,43.597534 103.643372,41.229111 
z"/>
<path fill="#000000" opacity="1.000000" stroke="none" 
	d="
M323.638367,103.499847 
	C325.067047,102.912010 326.126984,102.429428 327.224884,102.059624 
	C328.505066,101.628403 329.539581,102.016739 330.064209,103.302330 
	C330.632629,104.695267 330.489807,105.983231 328.944366,106.629295 
	C322.060852,109.506866 315.168732,112.364586 308.253632,115.165070 
	C306.808624,115.750259 305.625610,115.190956 305.077759,113.684715 
	C304.486542,112.059258 305.429382,111.201233 306.784149,110.627747 
	C312.283386,108.299889 317.785400,105.978645 323.638367,103.499847 
z"/>
<path fill="#000000" opacity="1.000000" stroke="none" 
	d="
M280.478333,64.459511 
	C281.999847,62.912254 283.253082,61.593964 284.557556,60.328510 
	C285.794464,59.128620 287.097107,58.818672 288.399780,60.268677 
	C289.492065,61.484482 289.329163,62.687775 288.254852,63.776806 
	C283.147797,68.953766 278.029816,74.120056 272.888519,79.262993 
	C271.676208,80.475700 270.356934,80.742126 269.002441,79.371284 
	C267.588928,77.940742 268.131927,76.790848 269.360168,75.579857 
	C273.009094,71.982285 276.611694,68.337753 280.478333,64.459511 
z"/>
</svg>